<svg width="80" height="80" viewBox="0 0 80 80" fill="none" xmlns="http://www.w3.org/2000/svg">
<path d="M60.9918 5.94433C72.3988 12.9905 80 25.6076 80 40C80 62.0914 62.0914 80 40 80C35.1825 80 30.5639 79.1484 26.2879 77.5861L25.8311 77.416L26.5749 77.1771L27.5312 76.8635L28.003 76.7059L28.4705 76.5478L29.393 76.23L30.2986 75.9102L31.1872 75.5882L32.059 75.2641L32.4886 75.1012L33.3351 74.7739C34.229 74.4236 35.0941 74.0696 35.9305 73.7117L36.5523 73.4426L37.3145 73.1042C37.6495 72.9533 37.9795 72.8017 38.3045 72.6494L38.7883 72.4205L39.4999 72.0752L39.8494 71.9016L40.1947 71.7275L40.8726 71.3775C46.5636 68.3923 50.4302 65.1494 52.4831 61.5937C56.8326 54.0601 53.0339 46.0094 42.1291 37.8019L41.2417 37.1366L40.7026 36.7232L40.1792 36.3129L39.6715 35.9058L39.1793 35.5018L38.9391 35.3009L38.7027 35.1009L38.2415 34.7031L37.9058 34.4067L37.5787 34.1121L37.156 33.7219L36.7486 33.3348L36.3564 32.9507L36.1661 32.7597L35.9795 32.5695L35.6176 32.1914C31.3069 27.6089 30.3443 23.686 32.3013 20.2964C33.2974 18.5712 35.0242 16.875 37.4789 15.2231L37.7769 15.0251L38.2463 14.7231C38.4585 14.5891 38.6756 14.4554 38.8975 14.322L39.234 14.1221L39.7523 13.8233L40.287 13.5255L40.6987 13.3029L41.1196 13.0809L41.6951 12.786C42.1328 12.5652 42.5843 12.3454 43.0495 12.1266L43.5193 11.9082L44.16 11.618L44.4864 11.4734L45.1515 11.1851L45.4902 11.0414L46.1797 10.7551L46.5306 10.6124L47.2445 10.328L47.6076 10.1863L48.346 9.90388L49.1006 9.62288L49.484 9.4829L50.263 9.20399L51.0583 8.92651L51.8699 8.65047L52.2817 8.513L53.1176 8.23917L53.9698 7.96684L54.8381 7.69602L55.7228 7.42675L56.6236 7.15903L57.7725 6.82662L58.9467 6.49671L60.3892 6.1042L60.9918 5.94433ZM40 0C44.8644 0 49.526 0.868303 53.8382 2.45837L54.2989 2.63149L54.0068 2.71992L52.5821 3.15908L52.1156 3.30661L51.1951 3.60338L50.2915 3.90247L49.4046 4.20389L48.5344 4.50766L47.6811 4.81381L47.2607 4.96778L46.2281 5.35534L45.2216 5.7467L44.4352 6.06255L44.0484 6.22141L43.2871 6.54099C35.5077 9.85623 30.4093 13.5735 27.9712 17.7964C23.7158 25.1668 27.5755 33.1123 38.4814 41.3176L39.3688 41.983L39.9077 42.3966L40.4308 42.8074L40.6864 43.0116L41.1859 43.4179L41.5503 43.7207L41.9059 44.0219L42.3663 44.4209L42.5907 44.6193L43.0279 45.0141C43.2664 45.2325 43.4979 45.4497 43.7222 45.6656L44.0533 45.9884L44.53 46.469L44.9829 46.9452C49.2752 51.5596 50.1926 55.5609 48.1529 59.0937C46.8331 61.3797 44.3134 63.63 40.5993 65.8145L40.2584 66.013L39.7058 66.326L39.1368 66.6381C38.8161 66.8112 38.4878 66.9838 38.1519 67.156L37.6424 67.414L37.0158 67.7227L36.3728 68.0303L35.7134 68.3368L35.3775 68.4897L34.6935 68.7947L33.993 69.0985L33.2761 69.4012L32.9115 69.5522L32.17 69.8532L31.7931 70.0033L31.4121 70.1531L30.6378 70.4517L29.8471 70.7492L29.04 71.0454L28.2166 71.3404L27.3767 71.6341L26.9506 71.7805L26.0862 72.0723L25.6478 72.2177L24.7588 72.5074L23.8534 72.7959L22.6987 73.1545L21.5184 73.511L20.5558 73.7946L19.2123 74.1809C7.69201 67.1597 0 54.4781 0 40C0 17.9086 17.9086 0 40 0Z" fill="#0080FF"/>
</svg>
